<?xml version="1.0" encoding="UTF-8" standalone="no"?><!DOCTYPE svg PUBLIC "-//W3C//DTD SVG 1.1//EN" "http://www.w3.org/Graphics/SVG/1.1/DTD/svg11.dtd"><svg width="100%" height="100%" viewBox="0 0 900 900" version="1.1" xmlns="http://www.w3.org/2000/svg" xmlns:xlink="http://www.w3.org/1999/xlink" xml:space="preserve" xmlns:serif="http://www.serif.com/" style="fill-rule:evenodd;clip-rule:evenodd;stroke-linecap:round;stroke-linejoin:round;stroke-miterlimit:1.5;"><path id="Forma" d="M14.373,0c0,0 -38.088,125.839 50.904,192.748c0,0 54.161,32.093 62.461,69.487c0,-0 10.7,99.919 52.328,156.922c-0,0 56.969,94.534 206.706,75.044c0,-0 67.45,-12.687 63.228,108.675c-0,0 7.232,71.79 105.747,62.016c0,0 91.774,4.462 194.134,-76.658c0,0 76.974,-42.484 150.119,17.682l-0,-605.916l-885.627,0Z" style="fill:#ff5c57;"/><path d="M508.183,435.136c-0,-0 -14.752,-40.325 -23.871,-50.846c0,-0 -13.874,-12.576 -16.324,-24.88" style="fill:none;stroke:#000;stroke-width:0.42px;"/><g id="Movil"><path id="Carcasa" d="M700.888,317.706c-0,-0 -2.309,2.133 -4.808,-2.588l-8.112,-14.674c-0,0 -0.832,-2.694 1.152,-3.666l44.479,-23.207l12.319,13.079c0,0 -31.131,26.249 -45.03,31.056Z" style="fill:#1c1c1c;"/><path id="Pantalla" d="M699.357,314.312c-0,-0 -1.2,0.478 -1.681,-0.982l-8.167,-14.827c-0,-0 -0.701,-0.822 0.339,-1.187l42.37,-22.135c0,-0 1.259,-0.544 1.707,0.353l1.768,1.653c0,-0 0.584,0.692 -0.072,0.886l-1.469,1.146c-0,-0 -0.736,0.786 0.323,1.307l5.344,5.802l1.95,2.362c-0,-0 -29.548,20.206 -42.412,25.622Z" style="fill:#fbfbfb;"/><clipPath id="_clip1"><path id="Pantalla1" serif:id="Pantalla" d="M699.357,314.312c-0,-0 -1.2,0.478 -1.681,-0.982l-8.167,-14.827c-0,-0 -0.701,-0.822 0.339,-1.187l42.37,-22.135c0,-0 1.259,-0.544 1.707,0.353l1.768,1.653c0,-0 0.584,0.692 -0.072,0.886l-1.469,1.146c-0,-0 -0.736,0.786 0.323,1.307l5.344,5.802l1.95,2.362c-0,-0 -29.548,20.206 -42.412,25.622Z"/></clipPath><g clip-path="url(#_clip1)"><path id="Sombra" d="M703.735,311.335c-0,0 1.06,-3.972 -3.926,-4.026c-0,0 -4.73,-1.311 -1.089,-5.542c0,-0 0.172,-0.683 3.014,-0.295c2.841,0.387 13.429,-1.821 15.88,-7.486c0,-0 2.92,-5.462 17.806,-3.846l-6.873,8.558l-3.954,2.518c0,-0 -20.088,10.574 -20.514,10.861c-0.426,0.288 -0.344,-0.742 -0.344,-0.742Z" style="fill:#0a0000;fill-opacity:0.1;"/></g></g><path id="Ordenador" d="M406.736,282.63l-25.856,-47.871l-4.561,-0.907l-36.278,90.59l23.86,36.92l37.056,3.051l49.043,-71.087l-2.865,-2.766l-40.399,-7.93Z" style="fill:#9a9a9a;"/><clipPath id="_clip2"><path id="Ordenador1" serif:id="Ordenador" d="M406.736,282.63l-25.856,-47.871l-4.561,-0.907l-36.278,90.59l23.86,36.92l37.056,3.051l49.043,-71.087l-2.865,-2.766l-40.399,-7.93Z"/></clipPath><g clip-path="url(#_clip2)"><path d="M362.903,363.868l42.311,-82.107l46.473,8.403l-5.828,15.905l-23.349,36.146l-59.607,21.653Z" style="fill:#525252;"/><path d="M375.058,230.815l28.889,54.205l49.189,8.46l-4.925,-5.55l-39.666,-7.227l-27.688,-49.53l-5.799,-0.358Z" style="fill:#878787;"/></g><g id="Persona"><path id="cara" d="M571.503,333.698l9.616,-14.337c-0,0 -15.955,-3.452 -12.162,-21.875c-0,0 1.94,-13.225 9.889,-19.7c-0,-0 0.047,-1.082 -0.394,-2.067l33.126,4.045l0.764,7.414l-0.461,16.456l0.085,9.249l-0.949,0.869c0,-0 -7.37,4.447 -12.695,8.497c-0,-0 -10.313,17.818 -9.496,18.812l-4.497,2.537l-7.785,-0.373l-4.68,-5.764l-0.361,-3.763Z" style="fill:#ffeccc;"/><g id="Manos"><path id="Derecha" d="M686.275,327.687c0,0 28.535,-15.447 36.349,-23.914c0,0 4.189,-4.224 4.28,-7.83c0,-0 7.611,-10.468 13.239,-11.313c0,0 12.522,-5.04 13.654,3.461l-6.849,8.032c0,0 -7.358,12.346 -8.611,12.924c0,0 -5.625,5.001 -11.887,8.14c-0,0 -19.837,13.252 -19.574,14.562l-20.601,-4.062Z" style="fill:#ffeccc;"/><path id="Izquierda" d="M501.289,230.399c-0,0 -8.665,-50.726 -4.495,-69.845c0,-0 -8.348,-4.155 -8.583,17.231c-0,-0 -9.212,7.062 -6.633,21.205c0,0 6.471,33.839 7.635,36.269c1.164,2.431 12.076,-4.86 12.076,-4.86Z" style="fill:#ffeccc;"/></g><g id="Piernas"><path id="Izquierda1" serif:id="Izquierda" d="M296.229,410.303l24.29,-11.265l4.582,12.134l-21.422,10.307c0,-0 -12.961,-1.04 -7.45,-11.176Z" style="fill:#ffeccc;"/><path id="Derecha1" serif:id="Derecha" d="M361.606,523.163l14.533,-23.233l10.583,5.089l-14.234,23.598c0,0 -11.068,0.942 -10.882,-5.454Z" style="fill:#ffeccc;"/></g><path id="Pantalon" d="M507.892,428.607l-51.822,7.12c0,0 -17.313,5.305 -38.135,35.895c0,0 -25.946,34.795 -25.628,36.867c0,-0 -19.739,-9.727 -22.212,-9.93c0,-0 42.088,-103.208 66.965,-108.268c0,0 -20.406,-10.503 -28.899,-6.556c0,-0 -54.864,15.521 -83.079,31.826c0,0 -7.464,-18.309 -8.576,-18.809c-0,0 83.766,-66.183 91.234,-61.746c-0,0 48.862,13.919 65.545,22.111c16.683,8.191 34.607,71.49 34.607,71.49Z" style="fill:#66a3e6;"/><clipPath id="_clip3"><path id="Pantalon1" serif:id="Pantalon" d="M507.892,428.607l-51.822,7.12c0,0 -17.313,5.305 -38.135,35.895c0,0 -25.946,34.795 -25.628,36.867c0,-0 -19.739,-9.727 -22.212,-9.93c0,-0 42.088,-103.208 66.965,-108.268c0,0 -20.406,-10.503 -28.899,-6.556c0,-0 -54.864,15.521 -83.079,31.826c0,0 -7.464,-18.309 -8.576,-18.809c-0,0 83.766,-66.183 91.234,-61.746c-0,0 48.862,13.919 65.545,22.111c16.683,8.191 34.607,71.49 34.607,71.49Z"/></clipPath><g clip-path="url(#_clip3)"><g id="Sombras" opacity="0.1"><path id="Sombra1" serif:id="Sombra" d="M378.419,501.788c-0,0 56.533,-83.785 75.936,-84.551l50.029,-3.175l8.84,14.894c0,-0 -45.665,5.562 -51.933,6.734c-0,0 -16.79,1.902 -42.274,38.5c-0,0 -26.731,31.632 -25.646,34.299l-14.952,-6.701Z"/><path id="Sombra2" serif:id="Sombra" d="M437.009,390.336c-0,-0 15.471,-3.516 22.858,-1.626c0,0 -19.255,-27.849 -47.668,-22.702l-86.555,48.054l-1.62,2.561l91.934,-31.625l12.859,3.692l8.192,1.646Z"/></g></g><path id="Camiseta" d="M467.988,359.41l-3.803,-17.623c0,0 15.934,11.984 29.734,7.831l38.632,-15.598c-0,0 -51.478,-57.313 -47.015,-99.767c-0,-0 4.399,-8.209 19.67,-5.259c-0,-0 10.151,34.205 11.783,36.134c0,-0 26.109,53.474 55.197,67.758c-0,0 -0.858,2.495 0.879,4.433c0,-0 9.016,7.192 15.587,3.6c-0,-0 32.601,15.238 94.833,-15.644c-0,0 26.707,4.368 24.757,7.02c0,0 -55.623,50.125 -106.52,46.778c0,0 -10.891,-0.682 -36.136,21.319c-0,-0 -42.137,33.247 -57.22,34.318" style="fill:#cd0600;"/><clipPath id="_clip4"><path id="Camiseta1" serif:id="Camiseta" d="M467.988,359.41l-3.803,-17.623c0,0 15.934,11.984 29.734,7.831l38.632,-15.598c-0,0 -51.478,-57.313 -47.015,-99.767c-0,-0 4.399,-8.209 19.67,-5.259c-0,-0 10.151,34.205 11.783,36.134c0,-0 26.109,53.474 55.197,67.758c-0,0 -0.858,2.495 0.879,4.433c0,-0 9.016,7.192 15.587,3.6c-0,-0 32.601,15.238 94.833,-15.644c-0,0 26.707,4.368 24.757,7.02c0,0 -55.623,50.125 -106.52,46.778c0,0 -10.891,-0.682 -36.136,21.319c-0,-0 -42.137,33.247 -57.22,34.318"/></clipPath><g clip-path="url(#_clip4)"><path id="Sombra3" serif:id="Sombra" d="M488.358,397.023c0,0 19.764,17.211 40.133,7.938c-0,-0 17.209,-16.027 26.166,-18.752c0,0 29.656,-12.295 38.775,-19.768c-0,-0 4.561,-4.022 19.742,-2.123c0,-0 39.913,4.646 91.946,-37.975l8.939,3.741l-39.589,40.802l-75.14,16.402l-32.977,22.07l-53.085,30.778l-8.114,2.191l-18.081,-42.151l1.285,-3.153Z" style="fill-opacity:0.2;"/></g><path id="Pelo" d="M606.296,280.404c0,-0 -33.065,4.351 -35.82,-18.36c0,-0 -3.478,-23.424 16.821,-16.731c0,-0 17.169,9.823 28.034,3.221c0,0 7.781,-6.412 7.638,9.532c-0,-0 -1.52,3.878 9.481,3.162c-0,-0 7.221,2.212 4.887,9.554c-0,-0 -2.496,13.308 -0.937,19.135c-0,-0 -2.244,18.287 -23.898,24.122c0,0 -8.561,0.947 -5.485,-18.352c0,-0 7.471,-13.89 -0.721,-15.283Z" style="fill:#bdbdbd;"/><g id="Zapatillas"><path id="Izquierda2" serif:id="Izquierda" d="M304.156,421.15c0,0 -9.453,-1.226 -7.293,-11.143c0,0 -21.034,-18.661 -33.515,-15.934c0,0 -7.253,3.683 -0.109,10.22c0,-0 23.894,29.641 31.612,27.408c-0,-0 3.594,0.997 6.351,-4.897l2.954,-5.654Z" style="fill:#eee;"/><path id="Derecha2" serif:id="Derecha" d="M373.196,527.533c-0,-0 -10.728,1.878 -11.077,-5.024c0,-0 -41.866,-10.15 -41.484,3.47c-0,0 -0.653,4.799 22.998,10.155c0,-0 28.222,8.804 28.066,-0.665l1.497,-7.936Z" style="fill:#eee;"/></g></g><g id="Papel"><path d="M813.736,220.26c-0,0 -18.835,-0.173 -25.323,-3.226c0,0 21.652,-10.258 21.279,-15.04c-0.374,-4.782 5.539,13.019 5.539,13.019l-1.495,5.247Z" style="fill:#d0d0d0;"/><path d="M813.769,220.26c0,0 1.694,-20.595 -41.288,-55.554c-0,-0 37.287,-22.61 22.493,-40.624c0,0 47.213,26.372 49.737,58.612c0,-0 2.018,17.546 -30.942,37.566Z" style="fill:#fff;"/><g id="Texto"><path d="M796.187,166.674c0,0 13.951,-8.632 15.636,-19.778" style="fill:none;stroke:#ff5c57;stroke-opacity:0.38;stroke-width:2.92px;"/><path d="M814.915,186.453c0,-0 13.637,-9.33 15.285,-21.378" style="fill:none;stroke:#ff5c57;stroke-opacity:0.38;stroke-width:2.92px;"/><path d="M820.721,198.419c-0,0 14.041,-9.067 16.614,-21.933" style="fill:none;stroke:#ff5c57;stroke-opacity:0.38;stroke-width:2.92px;"/><path d="M804.005,177.808c0,0 16.689,-10.058 18.705,-23.047" style="fill:none;stroke:#ff5c57;stroke-opacity:0.38;stroke-width:2.92px;"/></g></g><g id="Papel1" serif:id="Papel"><path d="M502.394,129.39c0,0 -14.558,3.487 -20.148,2.379c-0,0 14.726,-12.072 13.519,-15.688c-1.207,-3.617 6.775,8.975 6.775,8.975l-0.146,4.334Z" style="fill:#d0d0d0;"/><path d="M502.42,129.384c0,-0 -2.652,-16.208 -42.519,-34.908c0,-0 24.411,-24.603 9.54,-35.653c0,0 41.479,11.264 49.622,35.643c-0,-0 4.928,13.143 -16.643,34.918Z" style="fill:#fff;"/><g id="Texto1" serif:id="Texto"><path d="M478.562,91.437c0,0 9.1,-9.338 8.257,-18.258" style="fill:none;stroke:#ff5c57;stroke-opacity:0.38;stroke-width:2.92px;"/><path d="M496.807,103.091c-0,-0 8.723,-9.816 7.678,-19.424" style="fill:none;stroke:#ff5c57;stroke-opacity:0.38;stroke-width:2.92px;"/><path d="M503.584,111.204c-0,0 9.086,-9.691 8.597,-20.108" style="fill:none;stroke:#ff5c57;stroke-opacity:0.38;stroke-width:2.92px;"/><path d="M486.731,98.521c0,0 10.937,-10.964 9.996,-21.369" style="fill:none;stroke:#ff5c57;stroke-opacity:0.38;stroke-width:2.92px;"/></g></g><g id="Papel2" serif:id="Papel"><path d="M428.121,139.228c-0,-0 -2.319,-8.895 -1.708,-12.34c0,0 7.592,8.892 9.797,8.107c2.205,-0.786 -5.427,4.269 -5.427,4.269l-2.662,-0.036Z" style="fill:#d0d0d0;"/><path d="M428.125,139.244c0,-0 9.917,-1.827 20.908,-26.53c-0,-0 15.402,14.683 22.003,5.418c-0,0 -6.406,25.601 -21.271,30.899c0,0 -8.008,3.187 -21.64,-9.787Z" style="fill:#fff;"/><g id="Texto2" serif:id="Texto"><path d="M451.127,124.132c-0,-0 5.844,5.471 11.31,4.845" style="fill:none;stroke:#ff5c57;stroke-opacity:0.38;stroke-width:2.92px;"/><path d="M444.197,135.475c-0,-0 6.133,5.235 12.018,4.475" style="fill:none;stroke:#ff5c57;stroke-opacity:0.38;stroke-width:2.92px;"/><path d="M439.299,139.735c0,-0 6.061,5.459 12.45,5.031" style="fill:none;stroke:#ff5c57;stroke-opacity:0.38;stroke-width:2.92px;"/><path d="M446.878,129.234c0,-0 6.866,6.579 13.241,5.873" style="fill:none;stroke:#ff5c57;stroke-opacity:0.38;stroke-width:2.92px;"/></g></g><g id="Taza"><path d="M165.685,366.243c-0,-0 -8.166,-2.659 -3.866,-23.275c-0,0 4.226,-17.227 13.576,-17.516l5.308,0.995c0,-0 1.938,-8.771 6.058,-7.631l17.323,4.347c0,-0 2.801,2.451 2.163,5.901l-0.763,3.839l2.406,1.05c0,0 7.187,8.879 4.209,21.152c-0,0 -4.072,13.191 -13.047,16.23c-0,-0 -21.87,-1.033 -33.367,-5.092Z" style="fill:#fff;"/><clipPath id="_clip5"><path d="M165.685,366.243c-0,-0 -8.166,-2.659 -3.866,-23.275c-0,0 4.226,-17.227 13.576,-17.516l5.308,0.995c0,-0 1.938,-8.771 6.058,-7.631l17.323,4.347c0,-0 2.801,2.451 2.163,5.901l-0.763,3.839l2.406,1.05c0,0 7.187,8.879 4.209,21.152c-0,0 -4.072,13.191 -13.047,16.23c-0,-0 -21.87,-1.033 -33.367,-5.092Z"/></clipPath><g clip-path="url(#_clip5)"><path d="M164.806,368.035c0,0 10.118,-8.876 21.363,-6.602c-0,-0 8.977,4.904 11.399,-9.291c0,-0 1.049,-4.878 7.663,-5.94c0,0 4.246,-4.904 3.637,-14.292l9.073,11.182l-0.258,12.706l-3.54,17.285l-30.154,0.485l-19.183,-5.533Z" style="fill:#f5f5f5;"/></g><path d="M165.718,364.577c-0,-0 11.956,-16.915 9.726,-38.314c0,-0 -8.43,0.341 -12.602,18.666c-0,0 -3.751,14.01 2.876,19.648Z" style="fill:#bbb;"/><path d="M185.047,327.534l1.05,-3.713c-0,-0 -0.083,-0.885 1.346,-0.553l13.385,3.361c0,-0 1.157,0.094 1.04,0.938l-0.215,4.013c0,0 -0.046,0.699 -0.767,0.58c-0.721,-0.119 -15.741,-4.096 -15.741,-4.096c-0,-0 -0.31,-0.187 -0.098,-0.53Z" style="fill:#ff5c57;"/><g id="Liquido"><path d="M175.358,333.126c0.091,0.032 0.191,-0.008 0.235,-0.094c0.26,-0.522 -0.037,4.23 -1.191,9.984c-1.24,6.181 -3.465,13.518 -5.908,16.717c0,0 -3.751,-0.568 -7.191,-6.277c-0,-0 -2.353,-3.904 -14.04,-2.272c0,-0 -8.804,0.14 -9.031,-13.709c0,0 1.462,-5.626 -12.173,-7.355c0,0 -61.646,-7.992 -46.311,-24.377c0,-0 7.309,-6.468 22.955,-10.983c0,-0 9.375,-2.275 8.079,-17.662c0,-0 -1.862,-23.862 19.367,-21.149c0,-0 20.176,3.154 5.918,32.727c0,-0 -13.679,19.774 -8.04,22.606c-0,-0 5.648,7.869 15.664,9.173c-0,0 11.396,0.675 11.741,14.149c0,-0 1.558,8.511 12.137,1.797c-0,-0 3.86,-4.617 7.789,-3.275Z" style="fill:#7df666;"/><clipPath id="_clip6"><path d="M175.358,333.126c0.091,0.032 0.191,-0.008 0.235,-0.094c0.26,-0.522 -0.037,4.23 -1.191,9.984c-1.24,6.181 -3.465,13.518 -5.908,16.717c0,0 -3.751,-0.568 -7.191,-6.277c-0,-0 -2.353,-3.904 -14.04,-2.272c0,-0 -8.804,0.14 -9.031,-13.709c0,0 1.462,-5.626 -12.173,-7.355c0,0 -61.646,-7.992 -46.311,-24.377c0,-0 7.309,-6.468 22.955,-10.983c0,-0 9.375,-2.275 8.079,-17.662c0,-0 -1.862,-23.862 19.367,-21.149c0,-0 20.176,3.154 5.918,32.727c0,-0 -13.679,19.774 -8.04,22.606c-0,-0 5.648,7.869 15.664,9.173c-0,0 11.396,0.675 11.741,14.149c0,-0 1.558,8.511 12.137,1.797c-0,-0 3.86,-4.617 7.789,-3.275Z"/></clipPath><g clip-path="url(#_clip6)"><path id="Sombra4" serif:id="Sombra" d="M82.553,299.828c-0,-0 9.512,19.814 20.192,11.676c0,-0 13.558,-21.632 14.254,-12.922c-0,0 -7.39,14.649 2.22,16.355l7.3,2.068c0,0 28.676,15.055 17.654,21.123c-0,0 -5.332,14.475 14.458,7.575c0,-0 15.379,-4.885 23.484,-0.249c8.105,4.637 2.766,-9.666 2.766,-9.666l-6.927,-8.806l-12.855,-2.59l-15.739,-8.4l-15.671,-8.81l4.905,-13.396l11.09,-30.299l-21.159,-11.655l-11.322,1.112l-10.662,21.305l-7.215,15.76l-16.773,9.819Z" style="fill-opacity:0.2;"/></g><path d="M93.29,283.846c0,0 -4.325,2.426 -5.423,0.343c0,0 -1.878,-2.601 1.633,-5.239l3.602,-3.097c0,0 3.051,-1.847 4.97,-0.092c0,-0 1.794,2.065 -0.101,4.028c0,0 -1.611,2.181 -4.681,4.057Z" style="fill:#7df666;"/><path d="M136.549,304.052c-0,0 -2.194,-4.684 2.985,-5.029c-0,0 5.172,0.326 5.502,4.572c-0,-0 0.201,2.868 -3.506,2.885c0,-0 -3.059,-0.119 -4.981,-2.428Z" style="fill:#7df666;"/><circle cx="160.567" cy="296.472" r="4.271" style="fill:#7df666;"/><circle cx="107.573" cy="338.144" r="4.664" style="fill:#7df666;"/><clipPath id="_clip7"><circle cx="107.573" cy="338.144" r="4.664"/></clipPath><g clip-path="url(#_clip7)"><path d="M106.653,332.822c0,-0 6.611,3.409 3.093,9.753c-3.517,6.345 3.798,-1.738 3.798,-1.738l-1.235,-6.964l-5.656,-1.051Z" style="fill:#fff;fill-opacity:0.25;"/></g><circle cx="118.758" cy="342.352" r="2.344" style="fill:#7df666;"/><g id="Reflejos" opacity="0.5"><path d="M120.048,259.165c-0,0 3.291,-3.363 9.072,-1.64c-0,-0 1.922,2.047 -0.446,1.696c0,-0 -6.285,-0.952 -7.283,-0.461c0,0 -2.4,0.739 -1.343,0.405Z" style="fill:#fff;"/><path d="M95.783,275.642c-0,-0 1.467,-0.032 1.519,0.74c-0,-0 -0.425,1.397 -1.15,0.59c0,-0 -1.066,-0.805 -0.369,-1.33Z" style="fill:#fff;"/><path d="M137.132,303.601c0,0 -1.116,-4.072 2.692,-3.957c-0,0 3.545,0.786 4.14,1.898c0,0 -6.82,-4.496 -6.832,2.059Z" style="fill:#fff;"/><path d="M158.903,292.685c0.568,-0.204 1.149,-0.041 1.295,0.366c0.146,0.406 -0.197,0.902 -0.765,1.107c-0.569,0.205 -1.149,0.041 -1.296,-0.366c-0.146,-0.406 0.197,-0.902 0.766,-1.107Z" style="fill:#fff;"/><path d="M117.676,340.675c-0,0 1.002,-0.803 2.385,0.155c0,0 0.928,1.072 0.597,1.074c-0,-0 -0.291,-0.33 -0.513,-0.562c0,-0 -1.098,-1.006 -1.559,-0.497c-0,0 -0.805,1.084 -1.089,0.879c-0,0 -0.706,-0.231 -0.44,-0.542l0.619,-0.507Z" style="fill:#fff;"/></g></g></g><g id="Perro"><path id="lengua" d="M745.476,466.833c-0,0 -8.765,5.329 -5.212,9.329c3.553,4 3.618,-4.445 8.757,-2.956c5.139,1.49 -3.545,-6.373 -3.545,-6.373Z" style="fill:#d71c51;"/><path id="Cabeza" d="M765.193,512.588c0,0 -2.438,5.548 2.753,4.854c-0,0 12.882,0.749 17.46,4.974c0,0 5.179,2.081 20.979,2.355c0,-0 4.271,-1.404 13.613,5.277c0,0 8.717,2.7 8.998,-1.742c0,-0 -5.845,-39.845 4.05,-54.421c-0,0 4.04,-12.872 -25.975,-28.899c-0,-0 -13.478,-5.11 -27.885,7.1c-0,-0 -4.866,0.993 -16.37,-1.265c0,-0 -13.529,-4.156 -16.569,2.988c0,-0 -8.506,13.196 3.006,21.592c-0,0 11.828,8.724 25.903,10.687c0,0 1.922,0.716 0.517,4.059c0,-0 -6.573,18.043 -10.48,22.441Z" style="fill:#f1d2a6;"/><clipPath id="_clip8"><path id="Cabeza1" serif:id="Cabeza" d="M765.193,512.588c0,0 -2.438,5.548 2.753,4.854c-0,0 12.882,0.749 17.46,4.974c0,0 5.179,2.081 20.979,2.355c0,-0 4.271,-1.404 13.613,5.277c0,0 8.717,2.7 8.998,-1.742c0,-0 -5.845,-39.845 4.05,-54.421c-0,0 4.04,-12.872 -25.975,-28.899c-0,-0 -13.478,-5.11 -27.885,7.1c-0,-0 -4.866,0.993 -16.37,-1.265c0,-0 -13.529,-4.156 -16.569,2.988c0,-0 -8.506,13.196 3.006,21.592c-0,0 11.828,8.724 25.903,10.687c0,0 1.922,0.716 0.517,4.059c0,-0 -6.573,18.043 -10.48,22.441Z"/></clipPath><g clip-path="url(#_clip8)"><path d="M754.189,455.849c-0,0 0.358,-5.707 -3.191,-6.424c-3.55,-0.718 -3.95,2.413 -3.95,2.413c-0,-0 -0.623,1.455 -0.097,2.575c0.527,1.12 0.297,2.784 7.238,1.436Z"/><path d="M750.356,452.796c0,0 -0.635,-0.227 -0.784,0.243c-0,0 -0.245,0.594 0.528,0.838c0,0 0.411,-0.222 0.726,-0.04l0.519,0.189c-0,-0 0.185,0.086 0.014,-0.255c-0.172,-0.342 -0.666,-0.948 -1.003,-0.975Z" style="fill:#484848;"/><path d="M784.468,523.566c0,0 5.658,-7.845 15.195,-6.701c9.537,1.144 14.097,0.583 14.097,0.583c-0,-0 6.341,-0.515 8.638,-8.051c0,-0 5.524,-50.053 19.974,-36.508c14.449,13.544 6.733,25.798 6.733,25.798l-10.552,33.674l-26.332,2.128l-25.356,-6.485l-2.397,-4.438Z" style="fill:#b59b76;"/></g><g id="Ojos"><path id="Derecho" d="M787.478,466.344c-0,0 -2.603,4.727 2.637,5.098c0,0 6.012,0.205 8.569,-4.384c-0,-0 1.141,-5.186 -4.577,-5.082c0,-0 -3.22,-0.33 -4.964,2.165l-1.665,2.203Z" style="fill:#050000;"/><path id="Izquierdo" d="M785.385,454.443c-0,0 -4.281,0.652 -3.666,-2.992c0,0 -0.063,-4.149 4.858,-5.492c0,-0 4.406,-0.906 5.224,2.097c0,-0 0.678,2.988 -0.244,3.228c0,-0 -1.716,2.972 -6.172,3.159Z"/></g><path id="Oreja" d="M815.252,472.753c-0,0 -25.089,27.741 -6.57,38.173l2.493,1.711c-0,0 -13.369,-3.836 -11.244,-15.85c0,-0 1.996,-11.598 15.321,-24.034Z" style="fill:#906426;"/></g><g id="Burbujas"><circle cx="894.391" cy="71.077" r="2.26" style="fill:#fff;"/><circle cx="542.661" cy="38.445" r="1.789" style="fill:#fff;"/><circle cx="524.05" cy="184.603" r="2.425" style="fill:#fff;"/><circle cx="568.034" cy="196.51" r="2.37" style="fill:#fff;"/><circle cx="713.806" cy="155.682" r="1.713" style="fill:#fff;"/><circle cx="710.726" cy="124.798" r="2.571" style="fill:#fff;"/><circle cx="833.7" cy="355.007" r="1.278" style="fill:#fff;"/><circle cx="714.014" cy="349.03" r="2.613" style="fill:#fff;"/><circle cx="499.01" cy="465.909" r="3.358" style="fill:#fff;"/><circle cx="534.797" cy="613.382" r="2.356" style="fill:#fff;"/><circle cx="260.02" cy="298.142" r="3.087" style="fill:#fff;"/><circle cx="314.043" cy="189.3" r="2.985" style="fill:#fff;"/><circle cx="140.39" cy="244.348" r="1.652" style="fill:#fff;"/><circle cx="147.575" cy="147.537" r="2.236" style="fill:#fff;"/><circle cx="59.008" cy="95.153" r="6.036" style="fill:#fff;"/><circle cx="93.545" cy="62.378" r="1.966" style="fill:#fff;"/><circle cx="301.617" cy="76.943" r="2.72" style="fill:#fff;"/><circle cx="304.675" cy="62.058" r="4.177" style="fill:#fff;"/><circle cx="376.097" cy="3.755" r="3.209" style="fill:#fff;"/></g><g id="Apple"><path d="M369.765,308.013c0,0 -5.487,0.022 -4.605,-3.615c-0,0 1.862,-1.357 1.948,-2.483c0,0 0.946,-0.996 1.664,-0.711c-0,0 -0.106,2.542 2.375,1.794c-0,-0 1.126,0.967 0.608,2.476c0,0 -1.426,1.156 -1.99,2.539Z" style="fill:#fff;"/><path d="M366.097,302.942c0,0 -1.39,-1.082 -0.309,-2.361c-0,0 1.441,0.987 0.309,2.361Z" style="fill:#fff;"/></g></svg>